<?xml version="1.0" standalone="no"?>
<!DOCTYPE svg PUBLIC "-//W3C//DTD SVG 20010904//EN"
 "http://www.w3.org/TR/2001/REC-SVG-20010904/DTD/svg10.dtd">
<svg version="1.0" xmlns="http://www.w3.org/2000/svg"
 width="512.000000pt" height="512.000000pt" viewBox="0 0 512.000000 512.000000"
 preserveAspectRatio="xMidYMid meet">
<metadata>
Created by potrace 1.11, written by Peter Selinger 2001-2013
</metadata>
<g transform="translate(0.000000,512.000000) scale(0.100000,-0.100000)"
fill="#000000" stroke="none">
<path d="M1905 5045 c-126 -127 -207 -279 -241 -455 -16 -84 -11 -258 10 -335
43 -155 149 -320 369 -575 12 -14 37 -44 54 -66 l33 -42 -68 -40 c-184 -110
-384 -293 -504 -462 -180 -255 -264 -506 -266 -797 -2 -433 152 -749 491
-1001 40 -30 77 -57 84 -61 9 -5 3 -26 -22 -78 -42 -88 -49 -119 -28 -127 27
-11 32 -7 82 68 90 133 201 258 284 320 l37 29 72 -72 c39 -40 104 -96 144
-127 40 -30 76 -59 79 -64 3 -5 -12 -36 -34 -68 -30 -44 -37 -62 -28 -71 16
-16 30 -14 48 6 9 10 81 79 160 154 162 154 168 159 304 284 141 130 205 196
205 214 1 43 18 -20 24 -89 10 -104 36 -299 72 -530 16 -104 58 -309 85 -410
16 -63 32 -124 35 -135 3 -14 -10 -36 -43 -73 -26 -28 -52 -52 -57 -52 -5 0
-46 24 -91 53 -113 73 -109 71 -220 125 -121 60 -251 105 -376 130 -139 29
-340 23 -468 -12 -261 -73 -489 -250 -683 -531 -54 -79 -55 -82 -8 -46 155
115 305 190 468 232 112 28 132 31 297 35 212 5 383 -27 567 -106 94 -40 222
-116 253 -150 18 -20 18 -21 -14 -54 -21 -21 -29 -38 -25 -49 13 -36 6 -42
349 287 105 101 237 228 294 283 l104 100 -37 189 c-35 180 -40 207 -51 264
-3 14 -7 36 -9 50 -6 27 -14 84 -22 139 -2 19 -6 46 -9 60 -6 35 -23 154 -30
216 -3 28 -8 64 -10 80 -2 17 -7 63 -10 104 -4 41 -8 82 -10 91 -18 95 -27
673 -13 815 30 287 102 444 218 475 38 10 90 44 80 52 -3 3 -48 19 -100 38
-177 62 -446 221 -569 338 -20 19 -6 42 99 160 69 77 90 106 81 115 -8 8 -26
-3 -69 -45 -31 -30 -70 -66 -86 -79 -16 -13 -36 -31 -45 -40 -24 -23 -198
-160 -257 -203 -38 -26 -53 -33 -57 -23 -3 8 -40 60 -84 118 -75 100 -242 275
-478 500 -254 244 -328 340 -380 494 -35 103 -43 210 -21 296 19 75 57 153 94
192 52 55 10 25 -53 -38z m358 -1648 c55 -72 114 -157 132 -188 l33 -56 -75
-74 c-210 -207 -336 -440 -381 -704 -11 -66 -7 -325 7 -400 18 -98 54 -219 85
-289 14 -32 26 -60 26 -63 0 -8 -67 31 -118 69 -147 109 -261 327 -289 550
-15 122 -7 446 13 543 3 11 9 42 14 69 40 202 137 397 269 539 40 43 160 137
176 137 6 0 54 -60 108 -133z m764 -213 c36 -26 78 -60 94 -76 l28 -30 -1
-657 c0 -626 -1 -659 -19 -696 -40 -83 -131 -150 -213 -158 -91 -9 -212 36
-289 109 l-37 35 49 52 c27 29 60 66 72 82 13 17 26 32 30 35 19 14 123 182
157 253 54 112 68 150 92 237 69 260 64 553 -13 788 -14 39 -22 72 -19 72 2 0
34 -21 69 -46z m-492 -319 c10 -51 11 -52 23 -100 6 -22 13 -60 16 -85 3 -25
9 -56 12 -70 3 -14 7 -104 9 -200 3 -154 -2 -236 -20 -329 -3 -14 -7 -38 -10
-53 -9 -46 -55 -187 -63 -192 -15 -9 -73 159 -92 264 -14 82 -18 142 -15 270
2 91 6 176 9 190 3 14 8 39 10 55 11 82 55 232 84 289 17 34 25 25 37 -39z"/>
</g>
</svg>
